<svg width="148" height="34" viewBox="0 0 148 34" fill="none" xmlns="http://www.w3.org/2000/svg">
<g clip-path="url(#clip0_20018_1820)">
<path d="M34.7237 33.9999L42.0006 22.2312L35.6009 21.0962L29.8707 22.2312L22.5938 33.9999H34.7237Z" fill="#C9F31D"/>
<path d="M18.128 3.25221L29.87 22.2341H42L31.873 5.85896C27.0418 -1.95364 14.961 -1.95364 10.127 5.85896L0 22.2315H6.38881L18.128 3.25221Z" fill="#FFFF00"/>
<path d="M18.1335 3.25716L19.5627 0.943729C19.7621 0.622349 19.978 0.318823 20.1993 0.0229492C16.2453 0.252507 12.3896 2.19864 10.1243 5.85881L0 22.2314H6.38881L18.128 3.25206V3.25971L18.1335 3.25716Z" fill="#C9F31D"/>
<path d="M19.1207 13.8893L20.4208 11.4374C20.6023 11.0967 20.7987 10.775 21 10.4614C17.4031 10.7047 13.8956 12.7674 11.8349 16.6468L2.625 33.9999H8.43679L19.1183 13.8812V13.8893H19.1207Z" fill="#FFFF00"/>
<path d="M22.5931 30.1333H0V22.2314H27.6621L22.5931 30.1333Z" fill="#C9F31D"/>
</g>
<path d="M59.632 14.808V10.584C59.632 10.2853 59.568 10.0827 59.44 9.976C59.312 9.848 59.088 9.784 58.768 9.784H53.328V6.648H60.144C61.5947 6.648 62.6293 6.968 63.248 7.608C63.888 8.22667 64.208 9.09067 64.208 10.2V14.808H59.632ZM59.632 23.064V14.296H64.208V23.448C64.208 24.5573 63.888 25.432 63.248 26.072C62.6293 26.6907 61.5947 27 60.144 27H53.328V23.864H58.768C59.088 23.864 59.312 23.8 59.44 23.672C59.568 23.544 59.632 23.3413 59.632 23.064ZM51.632 6.648H56.24V27H51.632V6.648ZM71.3233 27H66.8433V11.16H71.3233V27ZM66.7793 9.048V5.592H71.4193V9.048H66.7793ZM73.7122 18.68H78.1923V22.168C78.1923 22.4453 78.2563 22.648 78.3843 22.776C78.5123 22.904 78.7363 22.968 79.0563 22.968H79.7923C80.1336 22.968 80.3789 22.8933 80.5283 22.744C80.6776 22.5733 80.7523 22.3067 80.7523 21.944V21.112H80.9123V23.672C80.9123 24.5253 80.6776 25.1867 80.2083 25.656C79.7603 26.104 79.0989 26.328 78.2243 26.328H77.4563C76.1336 26.328 75.1736 26.0187 74.5763 25.4C74.0003 24.76 73.7122 23.8853 73.7122 22.776V18.68ZM78.1923 19.48H73.7122V14.712C73.7122 13.624 74.0003 12.76 74.5763 12.12C75.1736 11.48 76.1336 11.16 77.4563 11.16H78.2243C79.0989 11.16 79.7603 11.3947 80.2083 11.864C80.6776 12.312 80.9123 12.9627 80.9123 13.816V16.472H80.7523V15.544C80.7523 15.1813 80.6776 14.9253 80.5283 14.776C80.3789 14.6053 80.1336 14.52 79.7923 14.52H79.0563C78.7363 14.52 78.5123 14.584 78.3843 14.712C78.2563 14.8187 78.1923 15.0213 78.1923 15.32V19.48ZM80.7523 27.192V25.976H85.2003V27.704C85.2003 28.792 84.8909 29.656 84.2723 30.296C83.6536 30.936 82.6189 31.256 81.1683 31.256H74.3843V27.992H79.8883C80.2083 27.992 80.4323 27.928 80.5603 27.8C80.6883 27.6933 80.7523 27.4907 80.7523 27.192ZM85.2003 26.36H80.7523V13.816L80.8163 13.784V11.16H85.2003V26.36ZM92.3233 27H87.8433V11.16H92.3233V27ZM87.7793 9.048V5.592H92.4193V9.048H87.7793ZM95.0643 6.648H99.6723V27H95.0643V6.648ZM105.016 15.608V18.776H97.2083V15.608H105.016ZM106.04 6.648V10.008H96.8883V6.648H106.04ZM112.23 27H107.75V5.592H112.23V27ZM122.043 20.472V15.16C122.043 14.8827 121.979 14.6907 121.851 14.584C121.723 14.456 121.499 14.392 121.179 14.392H120.507V11.16H122.491C123.941 11.16 124.955 11.48 125.531 12.12C126.128 12.76 126.427 13.624 126.427 14.712V20.472H122.043ZM122.043 23V19.704H126.427V23.448C126.427 24.5573 126.128 25.432 125.531 26.072C124.955 26.6907 123.941 27 122.491 27H120.443V23.8H121.179C121.499 23.8 121.723 23.736 121.851 23.608C121.979 23.48 122.043 23.2773 122.043 23ZM119.131 15.16V20.472H114.715V14.712C114.715 13.624 115.013 12.76 115.611 12.12C116.208 11.48 117.232 11.16 118.683 11.16H120.635V14.392H119.995C119.675 14.392 119.451 14.456 119.323 14.584C119.195 14.6907 119.131 14.8827 119.131 15.16ZM119.131 19.608V23C119.131 23.2773 119.195 23.48 119.323 23.608C119.451 23.736 119.675 23.8 119.995 23.8H120.603V27H118.683C117.232 27 116.208 26.6907 115.611 26.072C115.013 25.432 114.715 24.5573 114.715 23.448V19.608H119.131ZM143.401 11.16H147.561L144.329 27H139.529L137.609 16.696L135.657 27H130.889L127.785 11.16H131.945L133.481 22.424L135.529 11.16H139.785L141.673 22.36L143.401 11.16Z" fill="white"/>
<defs>
<clipPath id="clip0_20018_1820">
<rect width="42" height="34" fill="white"/>
</clipPath>
</defs>
</svg>
